<svg width="160" height="80" viewBox="0 0 160 80" fill="none" xmlns="http://www.w3.org/2000/svg">
<path d="M55.1296 49.9161H60.2476V69.9084H55.1296V49.9161ZM100.872 55.6739C100.712 55.5139 99.1125 54.5543 96.5535 54.5543C93.3547 54.5543 90.9557 56.7935 90.9557 59.8323C90.9557 62.8711 93.1948 65.1102 96.5535 65.1102C98.9526 65.1102 100.552 64.1506 100.872 63.9907V69.4285C100.232 69.5885 98.4727 70.0683 96.2336 70.0683C90.4758 70.0683 85.5178 66.2298 85.5178 59.6723C85.5178 53.7546 89.996 49.2764 96.2336 49.2764C98.6327 49.2764 100.392 49.9161 100.872 49.9161V55.6739ZM48.0923 55.6739C47.9324 55.5139 46.333 54.5543 43.774 54.5543C40.5752 54.5543 38.1762 56.7935 38.1762 59.8323C38.1762 62.8711 40.4153 65.1102 43.774 65.1102C46.1731 65.1102 47.7724 64.1506 48.0923 63.9907V69.4285C47.4526 69.5885 45.6932 70.0683 43.4541 70.0683C37.8563 70.0683 32.7383 66.2298 32.7383 59.6723C32.7383 53.7546 37.2165 49.2764 43.4541 49.2764C45.8532 49.2764 47.6125 49.9161 48.0923 49.9161V55.6739ZM127.262 59.9922C127.262 65.75 122.783 70.3882 116.706 70.3882C110.628 70.3882 106.15 65.75 106.15 59.9922C106.15 54.2344 110.628 49.5962 116.706 49.5962C122.943 49.5962 127.262 54.2344 127.262 59.9922ZM116.706 54.7143C113.667 54.7143 111.428 57.1133 111.428 59.9922C111.428 62.8711 113.667 65.2702 116.706 65.2702C119.744 65.2702 121.984 62.8711 121.984 59.9922C121.984 57.1133 119.744 54.7143 116.706 54.7143ZM79.2802 54.5543C79.2802 54.5543 77.0411 53.9146 75.2818 53.9146C73.2026 53.9146 72.083 54.5543 72.083 55.5139C72.083 56.7934 73.5224 57.1133 74.3221 57.4332L75.7616 57.913C78.9603 59.0326 80.5597 61.2717 80.5597 63.6708C80.5597 68.6288 76.0814 70.3882 72.2429 70.3882C69.524 70.3882 66.965 69.9084 66.805 69.9084V65.2702C67.2849 65.4301 69.3641 66.0698 71.6032 66.0698C74.1622 66.0698 75.2818 65.2702 75.2818 64.1506C75.2818 63.191 74.3221 62.5512 73.0426 62.2313C72.7227 62.0714 72.2429 61.9115 71.9231 61.9115C69.0442 60.9518 66.805 59.3525 66.805 55.9938C66.805 52.3152 69.6839 49.7562 74.3221 49.7562C76.7212 49.7562 79.1203 50.3959 79.2802 50.3959V54.5543Z" fill="#7A878D"/>
<path d="M27.4604 28.4845C27.4647 28.1473 27.4014 27.8126 27.2743 27.5002C27.1473 27.1877 26.9589 26.9039 26.7204 26.6654C26.482 26.427 26.1981 26.2386 25.8857 26.1115C25.5733 25.9845 25.2386 25.9212 24.9014 25.9255C24.5641 25.9212 24.2294 25.9845 23.917 26.1115C23.6046 26.2386 23.3208 26.427 23.0823 26.6654C22.8438 26.9039 22.6555 27.1877 22.5284 27.5002C22.4013 27.8126 22.3381 28.1473 22.3424 28.4845V33.7625C22.3381 34.0997 22.4013 34.4344 22.5284 34.7468C22.6555 35.0592 22.8438 35.343 23.0823 35.5815C23.3208 35.82 23.6046 36.0083 23.917 36.1354C24.2294 36.2625 24.5641 36.3258 24.9014 36.3215C25.2386 36.3258 25.5733 36.2625 25.8857 36.1354C26.1981 36.0083 26.482 35.82 26.7204 35.5815C26.9589 35.343 27.1473 35.0592 27.2743 34.7468C27.4014 34.4344 27.4647 34.0997 27.4604 33.7625V28.4845Z" fill="#7A878D"/>
<path d="M41.215 21.6074C41.2193 21.2701 41.156 20.9354 41.029 20.623C40.9019 20.3106 40.7135 20.0268 40.4751 19.7883C40.2366 19.5498 39.9528 19.3615 39.6403 19.2344C39.3279 19.1073 38.9932 19.0441 38.656 19.0484C37.2165 19.0484 36.2569 20.1679 36.2569 21.6074V33.7626C36.2526 34.0999 36.3159 34.4346 36.443 34.747C36.57 35.0594 36.7584 35.3432 36.9969 35.5817C37.2353 35.8202 37.5192 36.0085 37.8316 36.1356C38.144 36.2627 38.4787 36.3259 38.8159 36.3216C39.1532 36.3259 39.4879 36.2627 39.8003 36.1356C40.1127 36.0085 40.3965 35.8202 40.635 35.5817C40.8735 35.3432 41.0618 35.0594 41.1889 34.747C41.316 34.4346 41.3792 34.0999 41.3749 33.7626V21.6074H41.215ZM55.1296 12.171C55.1339 11.8338 55.0706 11.4991 54.9435 11.1867C54.8165 10.8743 54.6281 10.5904 54.3896 10.352C54.1512 10.1135 53.8673 9.92514 53.5549 9.79806C53.2425 9.67098 52.9078 9.60772 52.5706 9.61202C52.2333 9.60772 51.8986 9.67098 51.5862 9.79806C51.2738 9.92514 50.99 10.1135 50.7515 10.352C50.513 10.5904 50.3247 10.8743 50.1976 11.1867C50.0705 11.4991 50.0073 11.8338 50.0116 12.171V38.7207C50.0073 39.058 50.0705 39.3927 50.1976 39.7051C50.3247 40.0175 50.513 40.3013 50.7515 40.5398C50.99 40.7783 51.2738 40.9666 51.5862 41.0937C51.8986 41.2208 52.2333 41.284 52.5706 41.2797C52.9078 41.284 53.2425 41.2208 53.5549 41.0937C53.8673 40.9666 54.1512 40.7783 54.3896 40.5398C54.6281 40.3013 54.8165 40.0175 54.9435 39.7051C55.0706 39.3927 55.1339 39.058 55.1296 38.7207V12.171ZM68.8842 21.6074C68.8885 21.2701 68.8253 20.9354 68.6982 20.623C68.5711 20.3106 68.3828 20.0268 68.1443 19.7883C67.9058 19.5498 67.622 19.3615 67.3096 19.2344C66.9972 19.1073 66.6625 19.0441 66.3252 19.0484C65.988 19.0441 65.6533 19.1073 65.3409 19.2344C65.0285 19.3615 64.7447 19.5498 64.5062 19.7883C64.2677 20.0268 64.0794 20.3106 63.9523 20.623C63.8252 20.9354 63.7619 21.2701 63.7662 21.6074V33.7626C63.7619 34.0999 63.8252 34.4346 63.9523 34.747C64.0794 35.0594 64.2677 35.3432 64.5062 35.5817C64.7447 35.8202 65.0285 36.0085 65.3409 36.1356C65.6533 36.2627 65.988 36.3259 66.3252 36.3216C66.6625 36.3259 66.9972 36.2627 67.3096 36.1356C67.622 36.0085 67.9058 35.8202 68.1443 35.5817C68.3828 35.3432 68.5711 35.0594 68.6982 34.747C68.8253 34.4346 68.8885 34.0999 68.8842 33.7626V21.6074Z" fill="#7A878D"/>
<path d="M82.639 28.4845C82.6433 28.1473 82.58 27.8126 82.4529 27.5002C82.3258 27.1877 82.1375 26.9039 81.899 26.6654C81.6605 26.427 81.3767 26.2386 81.0643 26.1115C80.7519 25.9845 80.4172 25.9212 80.08 25.9255C79.7427 25.9212 79.408 25.9845 79.0956 26.1115C78.7832 26.2386 78.4994 26.427 78.2609 26.6654C78.0224 26.9039 77.8341 27.1877 77.707 27.5002C77.5799 27.8126 77.5167 28.1473 77.521 28.4845V33.7625C77.5167 34.0997 77.5799 34.4344 77.707 34.7468C77.8341 35.0592 78.0224 35.343 78.2609 35.5815C78.4994 35.82 78.7832 36.0083 79.0956 36.1354C79.408 36.2625 79.7427 36.3258 80.08 36.3215C80.4172 36.3258 80.7519 36.2625 81.0643 36.1354C81.3767 36.0083 81.6605 35.82 81.899 35.5815C82.1375 35.343 82.3258 35.0592 82.4529 34.7468C82.58 34.4344 82.6433 34.0997 82.639 33.7625V28.4845Z" fill="#7A878D"/>
<path d="M96.3936 21.6072C96.3936 20.9285 96.124 20.2776 95.6441 19.7977C95.1642 19.3178 94.5133 19.0482 93.8346 19.0482C93.1559 19.0482 92.5051 19.3178 92.0251 19.7977C91.5452 20.2776 91.2756 20.9285 91.2756 21.6072V33.7624C91.2756 34.4411 91.5452 35.092 92.0251 35.5719C92.5051 36.0518 93.1559 36.3214 93.8346 36.3214C94.5133 36.3214 95.1642 36.0518 95.6441 35.5719C96.124 35.092 96.3936 34.4411 96.3936 33.7624V21.6072ZM110.148 12.1708C110.148 11.4921 109.879 10.8412 109.399 10.3613C108.919 9.88143 108.268 9.61182 107.589 9.61182C106.911 9.61182 106.26 9.88143 105.78 10.3613C105.3 10.8412 105.03 11.4921 105.03 12.1708V38.7205C105.03 39.3992 105.3 40.0501 105.78 40.53C106.26 41.0099 106.911 41.2795 107.589 41.2795C108.268 41.2795 108.919 41.0099 109.399 40.53C109.879 40.0501 110.148 39.3992 110.148 38.7205V12.1708ZM123.903 21.6072C123.903 21.2711 123.837 20.9383 123.708 20.6279C123.58 20.3174 123.391 20.0353 123.153 19.7977C122.916 19.56 122.634 19.3715 122.323 19.2429C122.013 19.1143 121.68 19.0482 121.344 19.0482C121.008 19.0482 120.675 19.1143 120.365 19.2429C120.054 19.3715 119.772 19.56 119.534 19.7977C119.297 20.0353 119.108 20.3174 118.98 20.6279C118.851 20.9383 118.785 21.2711 118.785 21.6072V33.7624C118.785 34.0985 118.851 34.4313 118.98 34.7417C119.108 35.0522 119.297 35.3343 119.534 35.5719C119.772 35.8096 120.054 35.998 120.365 36.1266C120.675 36.2552 121.008 36.3214 121.344 36.3214C121.68 36.3214 122.013 36.2552 122.323 36.1266C122.634 35.998 122.916 35.8096 123.153 35.5719C123.391 35.3343 123.58 35.0522 123.708 34.7417C123.837 34.4313 123.903 34.0985 123.903 33.7624V21.6072ZM137.658 28.4845C137.658 27.8058 137.388 27.1549 136.908 26.675C136.428 26.1951 135.777 25.9255 135.099 25.9255C134.42 25.9255 133.769 26.1951 133.289 26.675C132.809 27.1549 132.54 27.8058 132.54 28.4845V33.7624C132.54 34.4411 132.809 35.092 133.289 35.5719C133.769 36.0518 134.42 36.3214 135.099 36.3214C135.777 36.3214 136.428 36.0518 136.908 35.5719C137.388 35.092 137.658 34.4411 137.658 33.7624V28.4845Z" fill="#7A878D"/>
</svg>
