<svg width="160" height="64" viewBox="0 0 160 64" fill="none" xmlns="http://www.w3.org/2000/svg">
<path fill-rule="evenodd" clip-rule="evenodd" d="M63.773 40.0044C58.3701 43.9868 50.5389 46.1116 43.7963 46.1116C34.3422 46.1116 25.8311 42.6148 19.3921 36.7991C18.8862 36.3418 19.3395 35.7185 19.9466 36.0747C26.8955 40.1178 35.4876 42.5501 44.3629 42.5501C50.3486 42.5501 56.9333 41.3117 62.9879 38.7417C63.9025 38.3532 64.6674 39.3407 63.773 40.0044Z" fill="#7A878D"/>
<path fill-rule="evenodd" clip-rule="evenodd" d="M66.0192 37.4346C65.3311 36.5523 61.454 37.0178 59.7137 37.2242C59.1835 37.2889 59.1026 36.8275 59.5802 36.4957C62.6681 34.3224 67.7351 34.9497 68.326 35.6782C68.9169 36.4107 68.1722 41.4898 65.2704 43.9141C64.8252 44.2864 64.4003 44.0881 64.5986 43.5944C65.2502 41.9674 66.7112 38.3209 66.0192 37.4346Z" fill="#7A878D"/>
<path fill-rule="evenodd" clip-rule="evenodd" d="M59.8351 21.1527V19.0401C59.8351 18.7204 60.078 18.5059 60.3694 18.5059H69.8275C70.1311 18.5059 70.3739 18.7244 70.3739 19.0401V20.8492C70.3698 21.1527 70.1149 21.5493 69.6616 22.1766L64.7605 29.1741C66.5817 29.1296 68.5041 29.4008 70.1553 30.3316C70.5277 30.542 70.6289 30.8496 70.6572 31.1532V33.4074C70.6572 33.715 70.3172 34.0752 69.9611 33.889C67.0512 32.3633 63.1862 32.1973 59.9687 33.9052C59.6409 34.0833 59.2969 33.7271 59.2969 33.4196V31.2786C59.2969 30.9346 59.3009 30.3478 59.6449 29.8257L65.3231 21.6829H60.3815C60.078 21.6829 59.8351 21.4684 59.8351 21.1527Z" fill="#7A878D"/>
<path fill-rule="evenodd" clip-rule="evenodd" d="M25.3333 34.3344H22.4558C22.1806 34.3141 21.962 34.1077 21.9418 33.8447V19.0767C21.9418 18.7812 22.1886 18.5465 22.4962 18.5465H25.1795C25.4587 18.5586 25.6813 18.7731 25.7016 19.0402V20.9707H25.7542C26.4543 19.105 27.7696 18.2349 29.5423 18.2349C31.3433 18.2349 32.4684 19.105 33.2778 20.9707C33.9739 19.105 35.5563 18.2349 37.2521 18.2349C38.4581 18.2349 39.7775 18.7327 40.5829 19.8497C41.4935 21.0921 41.3073 22.8972 41.3073 24.4796L41.3033 33.8002C41.3033 34.0956 41.0564 34.3344 40.7488 34.3344H37.8754C37.588 34.3141 37.3573 34.0835 37.3573 33.8002V25.973C37.3573 25.3497 37.414 23.7956 37.2764 23.2047C37.0619 22.2132 36.4184 21.934 35.5847 21.934C34.8886 21.934 34.1601 22.3994 33.8646 23.144C33.5692 23.8887 33.5975 25.1352 33.5975 25.973V33.8002C33.5975 34.0956 33.3507 34.3344 33.0431 34.3344H30.1696C29.8782 34.3141 29.6516 34.0835 29.6516 33.8002L29.6475 25.973C29.6475 24.3258 29.9187 21.9016 27.8749 21.9016C25.8068 21.9016 25.8877 24.2651 25.8877 25.973V33.8002C25.8877 34.0956 25.6409 34.3344 25.3333 34.3344Z" fill="#7A878D"/>
<path fill-rule="evenodd" clip-rule="evenodd" d="M78.5167 18.2349C82.7865 18.2349 85.0974 21.9016 85.0974 26.5639C85.0974 31.0683 82.5436 34.642 78.5167 34.642C74.3239 34.642 72.0413 30.9753 72.0413 26.406C72.0413 21.8085 74.3522 18.2349 78.5167 18.2349ZM78.541 21.25C76.4203 21.25 76.2868 24.1396 76.2868 25.9406C76.2868 27.7456 76.2584 31.5985 78.5167 31.5985C80.7467 31.5985 80.8519 28.4903 80.8519 26.5962C80.8519 25.3497 80.7993 23.8604 80.4229 22.6786C80.0992 21.6507 79.4557 21.25 78.541 21.25Z" fill="#7A878D"/>
<path fill-rule="evenodd" clip-rule="evenodd" d="M90.6339 34.3344H87.7685C87.4811 34.3141 87.2504 34.0835 87.2504 33.8002L87.2464 19.0281C87.2707 18.7569 87.5095 18.5465 87.8009 18.5465H90.4679C90.7188 18.5586 90.9252 18.7286 90.9819 18.9593V21.2176H91.0345C91.8399 19.1981 92.9691 18.2349 94.9562 18.2349C96.2472 18.2349 97.5059 18.7003 98.3153 19.9751C99.0681 21.1569 99.0681 23.144 99.0681 24.5727V33.869C99.0357 34.128 98.7969 34.3344 98.5136 34.3344H95.628C95.365 34.3141 95.1464 34.1199 95.1181 33.869V25.8475C95.1181 24.2327 95.3042 21.8692 93.3171 21.8692C92.617 21.8692 91.9735 22.3387 91.6537 23.051C91.249 23.9535 91.1964 24.8519 91.1964 25.8475V33.8002C91.1924 34.0956 90.9414 34.3344 90.6339 34.3344Z" fill="#7A878D"/>
<path fill-rule="evenodd" clip-rule="evenodd" d="M100.869 33.1605C100.869 32.4159 101.504 31.8169 102.286 31.8169C103.067 31.8169 103.702 32.4159 103.702 33.1605C103.702 33.9012 103.067 34.5082 102.286 34.5082C101.504 34.5082 100.869 33.9012 100.869 33.1605Z" fill="#7A878D"/>
<path fill-rule="evenodd" clip-rule="evenodd" d="M131.356 34.3386C131.057 34.3264 130.822 34.0958 130.822 33.8044V19.0364C130.838 18.7733 131.061 18.5669 131.336 18.5507H132.392C132.684 18.5507 132.918 18.7612 132.943 19.0364V21.1894C133.695 19.4816 135.096 18.146 136.864 18.146H136.974H137.079C138.957 18.146 140.329 19.5301 140.839 21.5416C141.636 19.5544 143.133 18.146 145.108 18.146H145.209H145.327C146.723 18.146 148.067 19.0445 148.763 20.4124C149.435 21.7196 149.41 23.4599 149.41 24.9209L149.406 33.8044C149.41 34.0877 149.18 34.3184 148.892 34.3386H147.63C147.354 34.3264 147.132 34.1322 147.095 33.8772V24.9209C147.095 23.8646 147.148 22.7435 146.719 21.7803C146.282 20.7969 145.444 20.1817 144.546 20.1372C143.542 20.1858 142.619 20.9183 142.02 21.9058C141.243 23.1806 141.272 24.33 141.272 25.8194V33.8853C141.235 34.1281 141.021 34.3184 140.758 34.3386H139.503C139.204 34.3264 138.965 34.0958 138.965 33.8044L138.957 24.33C138.957 23.4599 138.904 22.436 138.503 21.6549C138.038 20.7645 137.204 20.1817 136.33 20.1372C135.424 20.1898 134.509 20.8819 133.967 21.6872C133.266 22.7152 133.133 23.986 133.133 25.2932V33.8044C133.133 34.0877 132.902 34.3184 132.615 34.3386H131.356Z" fill="#7A878D"/>
<path fill-rule="evenodd" clip-rule="evenodd" d="M122.687 34.6462C118.604 34.6462 116.774 30.4817 116.774 26.3172C116.774 21.9382 118.923 18.146 123.035 18.146H123.14H123.254C127.252 18.146 129.244 22.185 129.244 26.3496C129.244 30.7609 127.038 34.6462 122.902 34.6462H122.796H122.687ZM122.987 32.6267C124.33 32.5821 125.391 31.7484 126.018 30.3603C126.581 29.1137 126.69 27.6851 126.69 26.3172C126.69 24.8278 126.528 23.2737 125.828 21.9989C125.2 20.8859 124.124 20.1777 122.983 20.1372C121.712 20.1817 120.575 21.0438 120.004 22.3712C119.49 23.5206 119.332 25.0464 119.332 26.3172C119.332 27.7458 119.518 29.397 120.109 30.6395C120.684 31.8172 121.789 32.5821 122.987 32.6267Z" fill="#7A878D"/>
<path fill-rule="evenodd" clip-rule="evenodd" d="M109.927 32.5619C111.76 32.5052 112.723 31.0361 113.12 29.134C113.201 28.8952 113.383 28.7131 113.65 28.7131L114.86 28.709C115.147 28.7212 115.41 28.9397 115.386 29.2068C114.828 32.4486 112.873 34.6462 110.088 34.6462H109.975H109.87C105.815 34.6462 104.066 30.5748 104.066 26.4426C104.066 22.3429 105.839 18.146 109.894 18.146H110.003H110.113C112.93 18.146 114.937 20.3153 115.374 23.557C115.374 23.7998 115.147 24.0103 114.88 24.0386L113.613 24.0224C113.346 23.986 113.172 23.7594 113.132 23.5044C112.828 21.6953 111.788 20.2546 110.056 20.1979C107.3 20.2869 106.515 23.6784 106.515 26.2888C106.515 28.8021 107.17 32.4729 109.927 32.5619Z" fill="#7A878D"/>
<path fill-rule="evenodd" clip-rule="evenodd" d="M52.2953 27.2803C52.2953 28.4013 52.3237 29.3362 51.7571 30.3318C51.2997 31.1412 50.5713 31.639 49.7659 31.639C48.661 31.639 48.0135 30.7972 48.0135 29.5548C48.0135 27.1022 50.2111 26.657 52.2953 26.657V27.2803ZM55.1971 34.294C55.0069 34.4639 54.7317 34.4761 54.5172 34.3628C53.5621 33.5695 53.3881 33.2012 52.866 32.4444C51.2876 34.0552 50.1665 34.5368 48.1227 34.5368C45.6985 34.5368 43.8166 33.0434 43.8166 30.0526C43.8166 27.7174 45.0793 26.1268 46.8843 25.3498C48.4465 24.6618 50.6279 24.5404 52.2953 24.3501V23.9778C52.2953 23.2938 52.348 22.4844 51.9432 21.8935C51.5952 21.3634 50.9234 21.1448 50.3284 21.1448C49.2317 21.1448 48.2563 21.7074 48.0175 22.8729C47.969 23.132 47.7787 23.3869 47.5157 23.3991L44.7272 23.0996C44.4925 23.047 44.2294 22.8567 44.2982 22.4966C44.9376 19.1131 47.9973 18.0933 50.7331 18.0933C52.1335 18.0933 53.9628 18.4656 55.0676 19.5259C56.4679 20.8332 56.3344 22.5775 56.3344 24.4756V28.9598C56.3344 30.3075 56.8929 30.8984 57.419 31.6269C57.6011 31.8859 57.6416 32.1975 57.4069 32.3918C56.82 32.8815 55.7759 33.7921 55.2012 34.302L55.1971 34.294Z" fill="#7A878D"/>
<path fill-rule="evenodd" clip-rule="evenodd" d="M14.572 27.2803C14.572 28.4013 14.6003 29.3362 14.0337 30.3318C13.5764 31.1412 12.8519 31.639 12.0425 31.639C10.9376 31.639 10.2941 30.7972 10.2941 29.5548C10.2941 27.1022 12.4917 26.657 14.572 26.657V27.2803ZM17.4737 34.294C17.2835 34.4639 17.0083 34.4761 16.7938 34.3628C15.8387 33.5695 15.6687 33.2012 15.1426 32.4444C13.5642 34.0552 12.4472 34.5368 10.3994 34.5368C7.97916 34.5368 6.0932 33.0434 6.0932 30.0526C6.0932 27.7174 7.35995 26.1268 9.16093 25.3498C10.7231 24.6618 12.9045 24.5404 14.572 24.3501V23.9778C14.572 23.2938 14.6246 22.4844 14.2239 21.8935C13.8718 21.3634 13.2 21.1448 12.6091 21.1448C11.5123 21.1448 10.5329 21.7074 10.2941 22.8729C10.2456 23.132 10.0553 23.3869 9.79633 23.3991L7.00381 23.0996C6.76907 23.047 6.51005 22.8567 6.57481 22.4966C7.2183 19.1131 10.2739 18.0933 13.0098 18.0933C14.4101 18.0933 16.2394 18.4656 17.3442 19.5259C18.7446 20.8332 18.611 22.5775 18.611 24.4756V28.9598C18.611 30.3075 19.1695 30.8984 19.6956 31.6269C19.8818 31.8859 19.9223 32.1975 19.6875 32.3918C19.1007 32.8815 18.0565 33.7921 17.4818 34.302L17.4737 34.294Z" fill="#7A878D"/>
<path fill-rule="evenodd" clip-rule="evenodd" d="M152.397 18.7086C153.089 18.7086 153.664 19.2672 153.664 19.9714C153.664 20.6594 153.097 21.2381 152.397 21.2381C151.701 21.2381 151.134 20.6715 151.134 19.9714C151.134 19.2591 151.709 18.7086 152.397 18.7086ZM152.401 18.4658C151.592 18.4658 150.892 19.1215 150.892 19.9754C150.892 20.8132 151.58 21.4809 152.401 21.4809C153.227 21.4809 153.907 20.8051 153.907 19.9754C153.907 19.1215 153.215 18.4658 152.401 18.4658ZM151.835 20.8213H152.158V20.1413H152.458C152.575 20.1413 152.608 20.1899 152.632 20.287C152.632 20.3113 152.689 20.7403 152.693 20.8213H153.053C153.008 20.7403 152.984 20.5096 152.968 20.372C152.935 20.1575 152.919 20.0078 152.689 19.9916C152.806 19.9511 153.008 19.8864 153.008 19.5747C153.008 19.1295 152.616 19.1296 152.413 19.1296H151.835V20.8213ZM152.15 19.4007H152.421C152.511 19.4007 152.672 19.4007 152.672 19.6314C152.672 19.7204 152.632 19.8702 152.413 19.8702H152.15V19.4007Z" fill="#7A878D"/>
</svg>
