<svg width="160" height="64" viewBox="0 0 160 64" fill="none" xmlns="http://www.w3.org/2000/svg">
<g clip-path="url(#clip0_27_267)">
<path d="M35.534 44.0841C35.534 46.4421 33.566 48.3561 32.084 48.3561H15.326L36.404 14.6841H8.22198V20.2641H9.66798C9.66798 17.9061 11.192 15.9981 12.68 15.9981H27.158L5.95398 49.6641H36.53V44.0841H35.534Z" fill="#7A878D"/>
<path d="M72.104 46.9401L55.796 14.6841L40.85 46.9641C40.586 47.6721 39.146 48.5661 37.106 48.5661V49.6581H45.062V48.5661C43.586 48.5661 42.002 47.8341 42.386 46.9581L45.98 39.1641H59.768L63.686 46.9401C64.13 47.7261 62.144 48.5721 60.098 48.5721V49.6641H76.658L76.664 48.5721C74.156 48.5661 72.626 47.7861 72.104 46.9401ZM46.58 37.9041L52.544 24.8121L59.204 37.9041H46.58Z" fill="#7A878D"/>
<path d="M78.56 16.0341C80.984 16.0341 82.988 16.6581 82.988 17.4141C82.988 23.4141 82.976 46.9041 82.988 46.9041C82.988 47.7081 81.014 48.6021 78.584 48.6021L78.578 49.6581H94.79V48.6741C92.384 48.6741 90.434 47.7141 90.434 46.9101V15.7401H95.108C99.608 15.7401 103.256 19.4781 103.256 23.7201C103.256 27.9621 99.608 31.4061 95.102 31.4061H91.868C91.868 31.4061 102.824 47.9961 102.842 47.9961C103.274 48.6261 103.49 49.6641 103.49 49.6641H115.304V48.6801C113.03 48.6801 111.842 47.7381 111.182 46.9101L100.634 33.1461C105.698 32.8101 109.616 28.7181 109.616 23.8581C109.616 18.7821 105.254 14.6841 99.872 14.6841H78.56V16.0341Z" fill="#7A878D"/>
<path d="M151.4 46.9401L135.092 14.6841L120.146 46.9641C119.882 47.6721 118.448 48.6021 116.402 48.6021V49.6581H124.358V48.6741C122.882 48.6741 121.304 47.8341 121.682 46.9581L125.276 39.1641H139.064L142.982 46.9401C143.432 47.7261 141.44 48.6081 139.394 48.6081V49.6641H155.954L155.96 48.6441C153.452 48.6441 151.922 47.7861 151.4 46.9401ZM125.87 37.9041L131.834 24.8121L138.494 37.9041H125.87Z" fill="#7A878D"/>
</g>
<defs>
<clipPath id="clip0_27_267">
<rect width="150" height="34.98" fill="white" transform="translate(5 14)"/>
</clipPath>
</defs>
</svg>
