<svg width="160" height="38" viewBox="0 0 160 38" fill="none" xmlns="http://www.w3.org/2000/svg">
<path d="M12.5745 7.80481C10.6233 7.80481 10.1897 8.67202 10.1897 10.4064V13.4417H15.1762L14.7425 18.4281H10.1897V33.3875H4.11924V18.4281H0V13.4417H4.11924V10.4064C4.11924 5.41999 6.07046 2.81836 11.7073 2.81836H15.1762V7.3712L12.5745 7.80481ZM15.6098 22.7642C15.6098 17.1273 18.2114 13.0081 23.8482 13.0081C26.8835 13.0081 28.6179 14.5257 29.4851 16.4769V13.4417H35.3388V33.3875H29.4851V30.3522C28.6179 32.3035 26.6667 33.8211 23.8482 33.8211C18.2114 33.8211 15.6098 29.7018 15.6098 24.065V22.7642ZM21.6802 24.065C21.6802 27.1002 22.7642 29.0514 25.5827 29.0514C28.4011 29.0514 29.2683 27.317 29.2683 24.4986V22.5474C29.2683 19.7289 27.9675 17.9945 25.5827 17.9945C23.1978 17.9945 21.6802 19.9457 21.6802 22.981V24.065ZM47.9133 13.0081C50.2981 13.0081 52.4661 13.4417 53.7669 14.3089L52.4661 18.6449C51.1748 18.0527 49.7674 17.7564 48.3469 17.7777C45.0949 17.7777 43.5772 19.7289 43.5772 22.981V24.065C43.5772 27.317 45.0949 29.2682 48.3469 29.2682C49.7674 29.2895 51.1748 28.9932 52.4661 28.401L53.7669 32.7371C52.4661 33.6043 50.2981 34.0379 47.9133 34.0379C40.7588 34.0379 37.5068 30.1354 37.5068 24.065V23.1978C37.5068 16.9105 40.7588 13.0081 47.9133 13.0081ZM54.4173 24.2818V22.5474C54.4173 16.9105 57.6694 13.2249 64.1734 13.2249C70.6775 13.2249 73.0623 16.9105 73.0623 22.5474V25.7994H60.4878C60.7046 28.6178 61.7886 29.7018 65.2575 29.7018C68.7263 29.7018 69.8103 29.2682 71.7615 28.401L72.8455 32.5203C71.3279 33.3875 68.0759 34.0379 65.0406 34.0379C57.2358 33.8211 54.4173 30.1354 54.4173 24.2818ZM60.4878 21.6801H67.8591V21.2465C67.8591 19.0785 66.9919 17.3441 64.3902 17.3441C61.7886 17.3441 60.4878 18.8617 60.4878 21.6801ZM95.393 24.065C95.393 29.7018 92.7913 33.8211 87.1545 33.8211C84.1192 33.8211 81.9512 32.3035 81.3008 30.3522V33.3875H75.664V3.46877L81.7344 2.81836V16.0433C82.6016 14.3089 84.5528 12.7913 87.3713 12.7913C93.0081 12.7913 95.6098 16.9105 95.6098 22.5474L95.393 24.065ZM89.3225 22.7642C89.3225 19.9457 88.2385 17.7777 85.4201 17.7777C82.6016 17.7777 81.5176 19.5121 81.5176 22.3306V24.4986C81.5176 27.317 82.8184 29.0514 85.4201 29.0514C88.0217 29.0514 89.3225 26.8834 89.3225 24.065V22.7642ZM97.561 23.8482V22.7642C97.561 17.1273 100.813 12.7913 107.534 12.7913C114.255 12.7913 117.507 16.9105 117.507 22.7642V23.8482C117.507 29.485 114.255 33.8211 107.534 33.8211C100.813 33.8211 97.561 29.7018 97.561 23.8482ZM111.436 22.3306C111.436 19.7289 110.352 17.5609 107.534 17.5609C104.715 17.5609 103.631 19.7289 103.631 22.3306V24.2818C103.631 26.8834 104.715 29.0514 107.534 29.0514C110.352 29.0514 111.436 26.8834 111.436 24.2818V22.3306ZM119.241 23.8482V22.7642C119.241 17.1273 122.493 12.7913 129.214 12.7913C135.935 12.7913 139.187 16.9105 139.187 22.7642V23.8482C139.187 29.485 135.935 33.8211 129.214 33.8211C122.493 33.8211 119.241 29.7018 119.241 23.8482ZM133.117 22.3306C133.117 19.7289 132.033 17.5609 129.214 17.5609C126.396 17.5609 125.312 19.7289 125.312 22.3306V24.2818C125.312 26.8834 126.396 29.0514 129.214 29.0514C132.033 29.0514 133.117 26.8834 133.117 24.2818V22.3306ZM147.425 22.981L153.279 13.4417H159.783L153.496 23.1978L160 33.3875H153.713L147.425 23.6314V33.3875H141.355V3.46877L147.425 2.81836V22.981Z" fill="#7A878D"/>
</svg>
