<svg width="160" height="31" viewBox="0 0 160 31" fill="none" xmlns="http://www.w3.org/2000/svg">
<path d="M1.06665 29.7301V1.06689H21.079V29.7301H1.06665ZM18.1489 26.8V3.9372H3.91702V26.8H18.1489Z" fill="#7A878D"/>
<path d="M34.3343 20.4614H33.0785C31.4839 18.1692 29.8694 15.9367 28.2747 13.3455V20.4614H26.8795V10.4951H28.1352C29.7298 12.7874 31.3444 15.0198 32.939 17.6111V10.4951H34.3343V20.4614Z" fill="#7A878D"/>
<path d="M37.5434 16.4748C37.962 15.1593 38.3009 13.9633 38.7194 12.4285C39.138 13.9633 39.4769 15.1393 39.8357 16.4748H37.5434ZM38.2411 10.4751L34.8326 20.4414H36.2877L37.1248 17.7306H40.1147L40.8722 20.4414H42.7458L39.6164 10.4751C39.6364 10.4751 38.2411 10.4751 38.2411 10.4751Z" fill="#7A878D"/>
<path d="M44.4401 20.4614V11.8107H41.7891V10.4951H48.6858V11.8107H46.0347V20.4614H44.4401Z" fill="#7A878D"/>
<path d="M49.2439 20.4614V10.4951H50.9182V20.4614H49.2439Z" fill="#7A878D"/>
<path d="M56.2203 19.2057C54.4862 19.2057 53.8483 17.2523 53.8483 15.3786C53.8483 13.5648 54.546 11.8306 56.2203 11.8306C57.8947 11.8306 58.5923 13.5648 58.5923 15.3786C58.672 17.2523 58.0342 19.2057 56.2203 19.2057ZM56.2203 20.601C58.7916 20.601 60.466 18.3087 60.466 15.2989C60.466 12.5083 58.6521 10.2759 56.2203 10.2759C53.7885 10.2759 51.9747 12.5083 51.9747 15.2989C52.0345 18.2888 53.649 20.601 56.2203 20.601Z" fill="#7A878D"/>
<path d="M68.9175 20.4614H67.6617C66.0671 18.1692 64.4525 15.9367 62.8579 13.3455V20.4614H61.4626V10.4951H62.7184C64.313 12.7874 65.9276 15.0198 67.5222 17.6111V10.4951H68.9175V20.4614Z" fill="#7A878D"/>
<path d="M72.1864 16.4748C72.605 15.1593 72.9439 13.9633 73.3624 12.4285C73.781 13.9633 74.1199 15.1393 74.4787 16.4748C74.4986 16.4748 72.1864 16.4748 72.1864 16.4748ZM72.8243 10.4751L69.4158 20.4414H70.8709L71.708 17.7306H74.6979L75.4554 20.4414H77.329L74.2594 10.4751H72.8243Z" fill="#7A878D"/>
<path d="M77.9071 10.4751H79.5814V19.1259H82.9301V20.4414H77.8473V10.4751H77.9071Z" fill="#7A878D"/>
<path d="M93.7336 15.857V19.9632C92.8366 20.302 91.8599 20.5811 90.8832 20.5811C87.9531 20.5811 86.0795 18.2888 86.0795 15.3587C86.0795 12.6479 87.9531 10.2759 90.8832 10.2759C91.7802 10.2759 92.7569 10.6147 93.315 11.0333L92.7569 12.2093C92.2785 11.9303 91.5809 11.6512 90.943 11.6512C89.1292 11.6512 87.8734 13.1063 87.8734 15.3388C87.8734 17.7108 89.2687 19.106 90.7238 19.106C91.2022 19.106 91.5609 19.0462 91.8998 18.9067V15.8371H93.7336V15.857Z" fill="#7A878D"/>
<path d="M99.8728 11.8105H97.0225V14.5213H99.813V15.8369H97.0225V19.0461H100.371V20.3616H95.2883V10.4551H99.813V11.7706H99.8728V11.8105Z" fill="#7A878D"/>
<path d="M105.095 19.126C103.361 19.126 102.723 17.1726 102.723 15.2989C102.723 13.485 103.421 11.7509 105.095 11.7509C106.77 11.7509 107.467 13.485 107.467 15.2989C107.547 17.1726 106.909 19.126 105.095 19.126ZM105.095 20.601C107.667 20.601 109.341 18.3087 109.341 15.2989C109.341 12.5083 107.527 10.2759 105.095 10.2759C102.663 10.2759 100.85 12.5083 100.85 15.2989C100.909 18.229 102.524 20.601 105.095 20.601Z" fill="#7A878D"/>
<path d="M117.513 15.857V19.9632C116.616 20.302 115.64 20.5811 114.663 20.5811C111.733 20.5811 109.859 18.2888 109.859 15.3587C109.859 12.6479 111.733 10.2759 114.663 10.2759C115.56 10.2759 116.537 10.6147 117.095 11.0333L116.537 12.2093C116.058 11.9303 115.361 11.6512 114.723 11.6512C112.909 11.6512 111.653 13.1063 111.653 15.3388C111.653 17.7108 113.048 19.106 114.503 19.106C114.982 19.106 115.341 19.0462 115.679 18.9067V15.8371H117.513V15.857Z" fill="#7A878D"/>
<path d="M120.782 11.8107H121.54C122.516 11.8107 123.134 12.3688 123.134 13.4053C123.134 14.7208 122.297 15.3587 121.54 15.3587C121.4 15.3587 120.982 15.3587 120.842 15.4185V11.8107H120.782ZM125.108 20.3817L123.094 16.2756C124.211 15.7175 124.829 14.5414 124.829 13.3455C124.829 11.3921 123.653 10.4951 121.759 10.4951H119.108V20.4614H120.782V16.6942H121.54L123.134 20.4614H125.088V20.3817H125.108Z" fill="#7A878D"/>
<path d="M127.898 16.4748C128.317 15.1593 128.656 13.9633 129.074 12.4285C129.493 13.9633 129.832 15.1393 130.19 16.4748C130.21 16.4748 127.898 16.4748 127.898 16.4748ZM128.596 10.4751L125.187 20.4414H126.642L127.48 17.7306H130.47L131.227 20.4414H133.101L129.971 10.4751C129.991 10.4751 128.596 10.4751 128.596 10.4751Z" fill="#7A878D"/>
<path d="M136.35 10.4751H133.699V20.4414H135.373V16.6742H136.13C138.144 16.6742 139.399 14.9998 139.399 13.3255C139.479 11.392 138.303 10.4751 136.35 10.4751ZM136.13 15.3586C135.931 15.3586 135.572 15.3586 135.433 15.4184V11.8106H136.19C137.167 11.8106 137.725 12.3687 137.725 13.4052C137.745 14.7407 136.968 15.2988 136.13 15.3586Z" fill="#7A878D"/>
<path d="M147.352 20.3816H145.678V15.5779H142.13V20.3816H140.456V10.4751H142.13V14.3022H145.678V10.5349H147.352V20.3816Z" fill="#7A878D"/>
<path d="M148.967 20.3816V10.4751H150.641V20.4414H148.967V20.3816Z" fill="#7A878D"/>
<path d="M158.375 12.2294C157.957 11.9503 157.259 11.6713 156.641 11.6713C154.907 11.6713 153.651 13.1263 153.651 15.3588C153.651 17.7308 155.046 19.1261 156.721 19.1261C157.339 19.1261 157.977 18.9267 158.395 18.6477L158.874 19.9034C158.395 20.2423 157.478 20.6011 156.641 20.6011C153.711 20.6011 151.837 18.3088 151.837 15.3787C151.837 12.6679 153.651 10.2959 156.641 10.2959C157.538 10.2959 158.315 10.6348 158.933 11.0533L158.375 12.2294Z" fill="#7A878D"/>
</svg>
