<svg width="165" height="64" viewBox="0 0 165 64" fill="none" xmlns="http://www.w3.org/2000/svg">
<path d="M88.5455 37.7849C88.5422 38.7685 88.2395 39.7589 87.3601 40.529C86.4807 41.2991 84.9641 41.8876 82.4504 41.8876H77.4062V33.7663H82.2419C84.4984 33.7663 86.0991 34.2254 87.118 34.9383C87.5817 35.2504 87.9588 35.6748 88.2143 36.172C88.4697 36.6691 88.5953 37.2228 88.5791 37.7815M84.4631 28.063C85.4046 27.3854 85.8586 26.4236 85.8654 24.9826C85.862 23.994 85.5795 23.1465 84.8666 22.5143C84.1537 21.8821 82.9414 21.4315 80.9859 21.4315H77.4045V29.1256H79.8593C81.9863 29.1256 83.5114 28.7473 84.4597 28.063M94.0067 38.3784C94.0202 34.6255 91.5216 31.7739 87.5215 30.6776C88.6027 30.1261 89.4552 29.4501 90.0806 28.6296C90.9146 27.5266 91.3165 26.1748 91.3081 24.5993C91.3129 23.5838 91.1024 22.5789 90.6902 21.6508C90.2781 20.7227 89.6737 19.8927 88.9171 19.2154C87.2811 17.7391 84.7976 16.7841 81.413 16.7857H72.0593V46.5467H83.0389C86.9566 46.5467 89.704 45.4841 91.4745 43.9103C92.266 43.2246 92.9014 42.3772 93.3379 41.4253C93.7744 40.4735 94.0019 39.4391 94.0051 38.3919M104.43 52.3106H60.5449V11H104.43V52.3106ZM33.8777 28.0647C34.8193 27.387 35.2733 26.4253 35.2817 24.9843C35.28 23.9956 34.9959 23.1482 34.283 22.516C33.57 21.8838 32.3561 21.4332 30.4157 21.4332H26.8377V29.1256H29.2925C31.4178 29.1256 32.9412 28.7473 33.8912 28.063M36.5176 34.9568C35.5154 34.2439 33.9114 33.7848 31.6415 33.7848H26.8377V41.9044H31.8819C34.3973 41.9044 35.9123 41.3159 36.7916 40.5458C37.671 39.7757 37.9753 38.7853 37.977 37.8017C37.9927 37.2431 37.8668 36.6897 37.611 36.1928C37.3552 35.696 36.9779 35.2719 36.5142 34.9601M43.4584 38.3969C43.4719 34.644 40.9699 31.7924 36.9749 30.6961C38.051 30.1446 38.9052 29.4686 39.5307 28.6481C40.3714 27.5451 40.7665 26.1932 40.7631 24.6178C40.7667 23.6023 40.5554 22.5977 40.143 21.6697C39.7306 20.7418 39.1266 19.9117 38.3705 19.2339C36.7361 17.7576 34.2544 16.8026 30.868 16.8042H21.5126V46.5652H32.4923C36.41 46.5652 39.1574 45.5026 40.9279 43.9288C42.6984 42.355 43.4635 40.3053 43.4601 38.4104M53.8849 52.3291H10V11H53.8849V52.3291ZM146.285 38.592L145.579 39.0224C142.183 41.0973 138.483 42.2104 135.127 42.2087C127.939 42.1801 123.189 37.9211 123.189 31.7251C123.198 25.6602 128.139 21.1725 134.959 21.1574C138.426 21.1591 141.567 22.0553 145.297 24.0999L145.983 24.4765V18.9195L145.688 18.8018C141.481 17.1422 138.223 16.4024 135.006 16.4041C130.029 16.4024 125.713 18.0451 122.638 20.8329C119.563 23.6207 117.737 27.5586 117.74 32.0984C117.742 35.2493 119.04 38.9417 121.826 41.8506C124.6 44.7813 128.876 46.9167 134.739 46.915H134.759C139.622 46.915 142.993 45.8321 146.025 44.329L146.284 44.2029L146.285 38.592ZM155 52.319H111.115V11H155V52.319Z" fill="#7A878D"/>
</svg>
