<svg width="160" height="57" viewBox="0 0 160 57" fill="none" xmlns="http://www.w3.org/2000/svg">
<g clip-path="url(#clip0_27_236)">
<path d="M36.2441 48.5432C32.9368 48.4118 30.2309 47.5068 28.1151 45.826C27.7113 45.5049 26.7491 44.5421 26.4263 44.1361C25.5683 43.0572 24.985 42.0072 24.5959 40.8423C23.3987 37.2563 24.0149 32.5507 26.3584 27.3864C28.3648 22.9651 31.4609 18.58 36.8626 12.5068C37.6582 11.6131 40.0278 8.99951 40.043 8.99951C40.0487 8.99951 39.9196 9.22321 39.7571 9.49561C38.3526 11.8481 37.1508 14.6192 36.4961 17.0181C35.4445 20.8674 35.5713 24.1708 36.8677 26.7323C37.7619 28.497 39.2949 30.0255 41.0188 30.8704C44.0368 32.3491 48.4552 32.4714 53.8512 31.2284C54.2227 31.1423 72.6317 26.2554 94.7603 20.3685C116.889 14.481 134.997 9.66778 135 9.67174C135.006 9.67684 83.589 31.6786 56.8975 43.0929C52.6704 44.9 51.54 45.3565 49.5528 46.0542C44.4728 47.8381 39.9224 48.6893 36.2441 48.5432Z" fill="#7A878D"/>
</g>
<defs>
<clipPath id="clip0_27_236">
<rect width="111" height="39.5593" fill="white" transform="translate(24 9)"/>
</clipPath>
</defs>
</svg>
