<svg width="167" height="48" viewBox="0 0 167 48" fill="none" xmlns="http://www.w3.org/2000/svg">
<path d="M20.25 37H12.1705V10.8182H20.608C23.1477 10.8182 25.321 11.3423 27.1278 12.3906C28.9347 13.4304 30.3196 14.9261 31.2827 16.8778C32.2457 18.821 32.7273 21.1477 32.7273 23.858C32.7273 26.5852 32.2415 28.9332 31.2699 30.902C30.2983 32.8622 28.8835 34.3707 27.0256 35.4276C25.1676 36.4759 22.9091 37 20.25 37ZM15.3409 34.1875H20.0455C22.2102 34.1875 24.0043 33.7699 25.4276 32.9347C26.8509 32.0994 27.9119 30.9105 28.6108 29.3679C29.3097 27.8253 29.6591 25.9886 29.6591 23.858C29.6591 21.7443 29.3139 19.9247 28.6236 18.3991C27.9332 16.8651 26.902 15.6889 25.5298 14.8707C24.1577 14.044 22.4489 13.6307 20.4034 13.6307H15.3409V34.1875ZM45.8693 37.4091C43.9773 37.4091 42.3452 36.9915 40.973 36.1562C39.6094 35.3125 38.5568 34.1364 37.8153 32.6278C37.0824 31.1108 36.7159 29.3466 36.7159 27.3352C36.7159 25.3239 37.0824 23.5511 37.8153 22.017C38.5568 20.4744 39.5881 19.2727 40.9091 18.4119C42.2386 17.5426 43.7898 17.108 45.5625 17.108C46.5852 17.108 47.5952 17.2784 48.5923 17.6193C49.5895 17.9602 50.4972 18.5142 51.3153 19.2812C52.1335 20.0398 52.7855 21.0455 53.2713 22.2983C53.7571 23.5511 54 25.0937 54 26.9261V28.2045H38.8636V25.5966H50.9318C50.9318 24.4886 50.7102 23.5 50.267 22.6307C49.8324 21.7614 49.2102 21.0753 48.4006 20.5724C47.5994 20.0696 46.6534 19.8182 45.5625 19.8182C44.3608 19.8182 43.321 20.1165 42.4432 20.7131C41.5739 21.3011 40.9048 22.0682 40.4361 23.0142C39.9673 23.9602 39.733 24.9744 39.733 26.0568V27.7955C39.733 29.2784 39.9886 30.5355 40.5 31.5668C41.0199 32.5895 41.7401 33.3693 42.6605 33.9062C43.581 34.4347 44.6506 34.6989 45.8693 34.6989C46.6619 34.6989 47.3778 34.5881 48.017 34.3665C48.6648 34.1364 49.223 33.7955 49.6918 33.3438C50.1605 32.8835 50.5227 32.3125 50.7784 31.6307L53.6932 32.4489C53.3864 33.4375 52.8707 34.3068 52.1463 35.0568C51.4219 35.7983 50.527 36.3778 49.4616 36.7955C48.3963 37.2045 47.1989 37.4091 45.8693 37.4091ZM74.0487 17.3636L66.7873 37H63.7191L56.4577 17.3636H59.7305L65.1509 33.0114H65.3555L70.7759 17.3636H74.0487Z" fill="white"/>
<path d="M77.5451 37V10.8182H94.8803V15.3821H83.0806V21.6207H93.7298V26.1847H83.0806V37H77.5451ZM105.932 37.3835C103.946 37.3835 102.229 36.9616 100.78 36.1179C99.3398 35.2656 98.2276 34.081 97.4435 32.5639C96.6594 31.0384 96.2674 29.2699 96.2674 27.2585C96.2674 25.2301 96.6594 23.4574 97.4435 21.9403C98.2276 20.4148 99.3398 19.2301 100.78 18.3864C102.229 17.5341 103.946 17.108 105.932 17.108C107.918 17.108 109.631 17.5341 111.071 18.3864C112.52 19.2301 113.637 20.4148 114.421 21.9403C115.205 23.4574 115.597 25.2301 115.597 27.2585C115.597 29.2699 115.205 31.0384 114.421 32.5639C113.637 34.081 112.52 35.2656 111.071 36.1179C109.631 36.9616 107.918 37.3835 105.932 37.3835ZM105.958 33.1648C106.861 33.1648 107.615 32.9091 108.221 32.3977C108.826 31.8778 109.282 31.1705 109.588 30.2756C109.904 29.3807 110.061 28.3622 110.061 27.2202C110.061 26.0781 109.904 25.0597 109.588 24.1648C109.282 23.2699 108.826 22.5625 108.221 22.0426C107.615 21.5227 106.861 21.2628 105.958 21.2628C105.046 21.2628 104.279 21.5227 103.657 22.0426C103.043 22.5625 102.578 23.2699 102.263 24.1648C101.956 25.0597 101.803 26.0781 101.803 27.2202C101.803 28.3622 101.956 29.3807 102.263 30.2756C102.578 31.1705 103.043 31.8778 103.657 32.3977C104.279 32.9091 105.046 33.1648 105.958 33.1648ZM124.584 10.8182V37H119.138V10.8182H124.584ZM128.947 37V17.3636H134.393V37H128.947ZM131.683 14.8324C130.873 14.8324 130.178 14.5639 129.599 14.027C129.028 13.4815 128.742 12.8295 128.742 12.071C128.742 11.321 129.028 10.6776 129.599 10.1406C130.178 9.59517 130.873 9.32244 131.683 9.32244C132.492 9.32244 133.183 9.59517 133.754 10.1406C134.333 10.6776 134.623 11.321 134.623 12.071C134.623 12.8295 134.333 13.4815 133.754 14.027C133.183 14.5639 132.492 14.8324 131.683 14.8324ZM147.627 37.3835C145.642 37.3835 143.924 36.9616 142.475 36.1179C141.035 35.2656 139.923 34.081 139.139 32.5639C138.355 31.0384 137.963 29.2699 137.963 27.2585C137.963 25.2301 138.355 23.4574 139.139 21.9403C139.923 20.4148 141.035 19.2301 142.475 18.3864C143.924 17.5341 145.642 17.108 147.627 17.108C149.613 17.108 151.326 17.5341 152.767 18.3864C154.216 19.2301 155.332 20.4148 156.116 21.9403C156.9 23.4574 157.292 25.2301 157.292 27.2585C157.292 29.2699 156.9 31.0384 156.116 32.5639C155.332 34.081 154.216 35.2656 152.767 36.1179C151.326 36.9616 149.613 37.3835 147.627 37.3835ZM147.653 33.1648C148.556 33.1648 149.311 32.9091 149.916 32.3977C150.521 31.8778 150.977 31.1705 151.284 30.2756C151.599 29.3807 151.757 28.3622 151.757 27.2202C151.757 26.0781 151.599 25.0597 151.284 24.1648C150.977 23.2699 150.521 22.5625 149.916 22.0426C149.311 21.5227 148.556 21.2628 147.653 21.2628C146.741 21.2628 145.974 21.5227 145.352 22.0426C144.738 22.5625 144.274 23.2699 143.958 24.1648C143.652 25.0597 143.498 26.0781 143.498 27.2202C143.498 28.3622 143.652 29.3807 143.958 30.2756C144.274 31.1705 144.738 31.8778 145.352 32.3977C145.974 32.9091 146.741 33.1648 147.653 33.1648Z" fill="#09E85E"/>
</svg>
